# xmcd
#
# Track frame offsets: 
#        150
#        7070
#        17076
#        25529
#        35671
#        43316
#        55258
#        62216
#        81562
#        99237
#        103797
#        111251
#        120187
#        128447
#        139180
#        145202
#        156466
#        169940
#        178936
#        182203
#        192967
#        196994
#        207497
#        228445
#        263763
#        271567
#        301593
#
# Disc length: 4306 seconds
#
# Revision: 5
# Processed by: cddbd v1.5.2PL0 Copyright (c) Steve Scherf et al.
# Submitted via: ExactAudioCopy v1.0b3
#
DISCID=7e10d01b
DTITLE=ATLUS - ペルソナ4 オリジナル・サウンドトラック [Disc 2]
DYEAR=2008
DGENRE=Soundtrack
TTITLE0=平田志穂子 - Reach Out To The Truth -Inst version-
TTITLE1=目黒将司 - specialist
TTITLE2=目黒将司 - Theater
TTITLE3=平田志穂子 - Heartbeat, Heartbreak
TTITLE4=目黒将司 - youthful lunch
TTITLE5=目黒将司 - Game
TTITLE6=目黒将司 - ZONE TIME
TTITLE7=目黒将司 - A New World Fool
TTITLE8=目黒将司 - 霧
TTITLE9=目黒将司 - Period
TTITLE10=小塚良太 - ジュネスのテーマ
TTITLE11=小塚良太 - 心の力 (P4ver.)
TTITLE12=小塚良太 - The Path is Open (P4ver.)
TTITLE13=目黒将司 - 夢想曲
TTITLE14=目黒将司 - How much?
TTITLE15=目黒将司 - Secret Base
TTITLE16=平田志穂子 - Heaven
TTITLE17=目黒将司 - Alone
TTITLE18=目黒将司 - 推理 -another version-
TTITLE19=目黒将司 - Long Way
TTITLE20=目黒将司 - Omen
TTITLE21=目黒将司 - 回廊
TTITLE22=目黒将司 - The Almighty
TTITLE23=目黒将司 - The Genesis
TTITLE24=目黒将司 - I'll Face Myself -another version-
TTITLE25=平田志穂子 - Never More
TTITLE26=目黒将司 - Electronica In Velvet Room
EXTD=YEAR: 2008
EXTT0=
EXTT1=
EXTT2=
EXTT3=
EXTT4=
EXTT5=
EXTT6=
EXTT7=
EXTT8=
EXTT9=
EXTT10=
EXTT11=
EXTT12=
EXTT13=
EXTT14=
EXTT15=
EXTT16=
EXTT17=
EXTT18=
EXTT19=
EXTT20=
EXTT21=
EXTT22=
EXTT23=
EXTT24=
EXTT25=
EXTT26=
PLAYORDER=
